<svg xmlns="http://www.w3.org/2000/svg" viewBox="0 0 800 360" role="img">

  <defs>
    <linearGradient id="bg" x1="0" y1="0" x2="1" y2="1">
      <stop offset="0%" stop-color="#1d4f73"/>
      <stop offset="100%" stop-color="#10283c"/>
    </linearGradient>
    <linearGradient id="panel" x1="0" y1="0" x2="0" y2="1">
      <stop offset="0%" stop-color="rgba(255,255,255,0.16)"/>
      <stop offset="100%" stop-color="rgba(255,255,255,0.04)"/>
    </linearGradient>
    <filter id="soft" x="-10%" y="-10%" width="120%" height="120%">
      <feGaussianBlur stdDeviation="0.6"/>
    </filter>
  </defs>
  <rect width="800" height="360" fill="url(#bg)"/>
  <circle cx="700" cy="40" r="160" fill="rgba(255,255,255,0.06)"/>
  <circle cx="80" cy="320" r="120" fill="rgba(0,0,0,0.08)"/>


  <g transform="translate(90,70)">
    <g fill="rgba(255,255,255,0.12)" stroke="rgba(255,255,255,0.85)" stroke-width="3">
      <rect x="0" y="40" width="150" height="180" rx="10"/>
      <rect x="170" y="20" width="150" height="200" rx="10"/>
      <rect x="340" y="55" width="150" height="165" rx="10"/>
    </g>
    <g stroke="rgba(255,255,255,0.55)" stroke-width="2.4">
      <path d="M22 90h106M22 120h86M22 150h96"/>
      <path d="M192 70h106M192 100h86M192 130h96M192 160h76"/>
      <path d="M362 100h106M362 130h86M362 160h96"/>
    </g>
  </g>

</svg>
